<?xml version="1.0" standalone="no"?>
<!DOCTYPE svg PUBLIC "-//W3C//DTD SVG 20010904//EN"
 "http://www.w3.org/TR/2001/REC-SVG-20010904/DTD/svg10.dtd">
<svg version="1.0" xmlns="http://www.w3.org/2000/svg"
 width="698.000000pt" height="697.000000pt" viewBox="0 0 698.000000 697.000000"
 preserveAspectRatio="xMidYMid meet">

<g transform="translate(0.000000,697.000000) scale(0.100000,-0.100000)"
fill="#000000" stroke="none">
<path d="M3140 6904 c-689 -71 -1331 -341 -1854 -781 -67 -56 -146 -127 -176
-159 -30 -32 -87 -90 -126 -129 -168 -167 -337 -396 -479 -650 -16 -27 -34
-57 -40 -65 -6 -8 -22 -40 -34 -70 -13 -30 -40 -91 -61 -135 -21 -44 -45 -98
-55 -120 -9 -22 -20 -47 -25 -56 -5 -9 -25 -67 -45 -130 -20 -63 -43 -130 -50
-150 -30 -81 -51 -179 -75 -344 -4 -33 -15 -88 -24 -123 -14 -56 -32 -230 -34
-332 -6 -276 6 -528 34 -715 25 -168 89 -437 119 -502 8 -17 15 -34 15 -38 0
-22 91 -249 146 -365 82 -173 101 -208 209 -380 12 -19 39 -63 59 -97 21 -35
58 -87 84 -115 26 -29 65 -79 86 -111 22 -32 51 -67 64 -78 14 -11 33 -32 43
-47 66 -104 497 -483 644 -566 28 -16 93 -57 145 -91 266 -174 693 -347 1023
-415 56 -12 122 -26 147 -31 92 -21 258 -39 365 -39 69 0 115 -4 122 -11 20
-20 581 15 668 41 17 5 50 12 75 15 25 4 70 13 100 20 30 7 96 23 145 36 50
12 95 25 100 29 6 4 45 17 88 29 98 27 351 125 387 151 14 10 97 55 184 99
396 201 753 502 1091 920 132 164 299 445 408 686 114 255 210 574 253 840 28
173 33 227 33 338 1 69 5 107 12 107 11 0 10 57 -9 365 -28 457 -141 876 -349
1290 -124 247 -285 491 -444 673 -127 145 -361 374 -479 469 -435 350 -947
587 -1500 693 -290 56 -693 74 -990 44z m63 -795 l22 -50 57 6 c32 4 58 3 58
-1 0 -5 -16 -25 -37 -46 l-36 -37 22 -52 c11 -29 19 -55 16 -58 -4 -3 -29 7
-56 23 l-51 28 -37 -36 c-48 -47 -61 -47 -50 2 15 66 12 76 -36 102 -58 32
-59 50 -1 50 55 0 72 15 80 75 4 25 12 45 17 45 6 0 20 -23 32 -51z m667 11
c0 -49 17 -80 44 -80 34 0 86 -11 86 -19 0 -3 -23 -19 -50 -34 -41 -23 -49
-32 -46 -50 12 -58 15 -85 9 -90 -3 -4 -26 11 -51 33 l-45 40 -48 -27 c-26
-15 -51 -25 -54 -21 -4 3 5 28 19 56 l25 49 -40 39 c-21 21 -39 42 -39 47 0 5
26 6 58 2 57 -6 58 -6 71 22 34 75 61 90 61 33z m-1310 -127 c0 -5 13 -23 28
-41 l28 -34 54 21 c60 23 71 20 50 -12 -48 -77 -48 -72 -12 -123 18 -25 31
-48 28 -51 -2 -2 -30 2 -61 10 l-57 14 -30 -48 c-16 -27 -34 -49 -39 -49 -5 0
-9 27 -9 60 l0 59 -55 16 c-30 9 -55 20 -55 24 0 5 23 17 52 28 l52 20 -3 56
c-2 46 1 57 13 57 9 0 16 -3 16 -7z m1980 -134 c24 -9 46 -21 48 -27 3 -10
-56 -32 -84 -32 -16 0 -24 -24 -24 -70 0 -56 -15 -57 -52 -5 -25 36 -37 45
-53 41 -11 -4 -38 -9 -59 -13 -44 -7 -44 -5 7 59 l29 36 -32 47 c-18 25 -30
49 -27 51 3 3 30 -2 60 -12 l54 -17 39 43 39 43 5 -64 5 -64 45 -16z m-802
-40 c544 -60 1070 -322 1442 -716 274 -291 473 -650 570 -1028 58 -227 65
-288 65 -575 0 -285 -10 -370 -70 -594 -161 -604 -550 -1110 -1097 -1430 -182
-106 -365 -180 -583 -236 -384 -99 -787 -97 -1175 6 -261 69 -540 203 -760
363 -550 401 -900 1009 -961 1672 -12 134 -7 414 11 539 119 837 678 1540
1475 1855 176 69 444 133 620 148 97 8 374 6 463 -4z m-1728 -149 c19 -16 39
-29 43 -30 5 0 29 14 53 31 25 17 48 28 51 25 3 -3 -2 -29 -12 -58 l-17 -52
41 -34 c23 -18 41 -38 41 -43 0 -5 -27 -9 -59 -9 l-59 0 -17 -51 c-9 -27 -22
-48 -28 -46 -6 2 -16 22 -22 45 -13 55 -21 60 -85 64 l-55 3 48 35 c52 37 51
33 31 123 -8 35 3 34 46 -3z m2906 -11 l45 -31 46 31 c26 16 50 28 54 25 5 -2
1 -23 -7 -46 -20 -58 -19 -63 31 -99 24 -17 42 -36 39 -40 -3 -5 -29 -9 -59
-9 l-53 0 -18 -50 c-10 -27 -23 -50 -29 -50 -6 0 -18 23 -28 50 l-18 50 -54 0
c-42 0 -55 3 -55 15 0 8 4 15 8 15 4 0 23 13 41 28 l34 28 -16 49 c-27 77 -25
79 39 34z m-3249 -404 l-6 -55 50 -25 c27 -14 49 -29 49 -34 0 -5 -25 -15 -55
-22 l-54 -12 -7 -59 c-4 -32 -10 -58 -14 -58 -4 0 -19 23 -34 51 -17 30 -33
48 -41 45 -30 -11 -105 -18 -105 -9 0 5 12 20 26 34 45 42 47 55 18 105 -14
24 -24 48 -20 51 3 3 28 -3 55 -15 l49 -20 38 39 c21 21 42 39 47 39 6 0 7
-23 4 -55z m3822 -19 c28 10 53 15 57 12 3 -4 -8 -27 -26 -53 l-32 -46 41 -44
c23 -25 41 -47 41 -51 0 -6 -44 0 -96 13 -17 4 -29 -5 -54 -41 -17 -26 -35
-44 -39 -41 -5 2 -12 29 -15 59 l-7 55 -43 6 c-43 7 -75 20 -66 28 3 2 27 14
53 25 l48 22 -1 52 c-1 29 -1 57 -1 63 1 5 21 -10 45 -34 l44 -44 51 19z
m-4193 -473 l9 -58 52 -10 c28 -5 55 -13 58 -17 4 -4 -17 -19 -47 -34 -29 -14
-54 -27 -56 -29 -1 -1 2 -26 8 -55 6 -29 8 -56 5 -58 -3 -3 -25 13 -49 37
l-43 43 -50 -26 c-28 -14 -53 -23 -56 -20 -3 3 6 24 19 47 13 23 24 48 24 54
0 7 -16 31 -36 53 -20 22 -35 43 -32 45 3 3 29 1 58 -5 29 -6 54 -9 55 -8 1 2
14 24 29 51 16 26 31 47 35 47 4 0 12 -26 17 -57z m4478 -13 c15 -27 32 -47
39 -45 7 2 31 6 55 9 53 8 55 -5 6 -55 l-36 -36 26 -52 c30 -59 22 -65 -46
-30 l-41 21 -42 -42 c-24 -23 -45 -38 -48 -32 -4 5 -3 32 2 61 9 57 6 62 -61
92 -38 17 -35 27 10 34 72 12 82 20 82 68 0 74 17 76 54 7z m-4726 -550 l20
-49 63 -3 63 -3 -47 -45 -46 -45 21 -48 c11 -26 18 -50 15 -54 -4 -3 -28 8
-54 25 l-47 31 -50 -42 -49 -42 7 45 c4 25 9 54 12 65 4 15 -6 27 -41 48 -25
16 -45 32 -45 36 0 4 26 12 57 17 l57 9 14 53 c8 28 18 52 22 52 4 0 17 -22
28 -50z m4963 -21 c15 -56 32 -69 95 -69 46 0 43 -14 -11 -46 -50 -29 -49 -27
-34 -90 6 -25 9 -47 6 -51 -3 -3 -24 9 -45 26 -22 17 -44 31 -50 31 -5 0 -30
-12 -56 -26 -52 -29 -54 -25 -29 47 l18 49 -45 40 -45 39 63 1 64 0 21 50 c11
28 24 50 28 50 4 0 13 -23 20 -51z m-5066 -589 c15 -22 31 -40 35 -40 4 0 29
7 56 15 27 8 50 15 52 15 9 0 -3 -28 -28 -66 l-31 -44 31 -46 c18 -25 30 -47
28 -49 -2 -2 -26 2 -53 10 -26 8 -51 15 -55 15 -4 0 -21 -20 -39 -45 -18 -25
-36 -43 -40 -41 -3 2 -8 28 -9 56 -1 29 -4 56 -7 60 -3 4 -25 14 -50 21 -25 7
-45 18 -45 24 0 6 24 17 53 25 31 9 53 21 53 30 1 8 2 34 3 58 0 23 5 42 10
42 4 0 21 -18 36 -40z m5167 -31 l3 -61 53 -20 c29 -11 51 -23 47 -26 -4 -4
-27 -14 -53 -23 l-47 -16 -5 -64 -5 -64 -20 24 c-11 13 -29 35 -41 49 l-20 25
-53 -18 c-29 -9 -55 -14 -58 -11 -4 3 8 26 25 50 18 24 32 48 32 54 0 5 -14
28 -31 51 -17 24 -28 45 -25 48 3 3 26 -2 52 -11 26 -9 52 -16 58 -16 6 0 24
20 39 45 16 25 33 45 37 45 5 0 10 -28 12 -61z m-5125 -579 c41 -36 46 -37
102 -5 24 14 46 23 48 21 3 -3 -5 -30 -16 -62 l-22 -57 33 -28 c18 -16 36 -28
41 -29 4 0 7 -6 7 -13 0 -10 -15 -12 -59 -9 l-58 4 -19 -51 c-10 -28 -23 -51
-29 -51 -7 0 -17 25 -24 55 -12 52 -14 55 -44 56 -18 1 -45 4 -62 8 l-30 7 53
34 c28 18 52 33 52 34 0 1 -7 26 -15 56 -18 66 -17 60 -4 60 6 0 27 -13 46
-30z m5077 -17 c-3 -16 -10 -41 -14 -56 -9 -26 -5 -30 43 -65 l52 -37 -61 -9
c-60 -8 -62 -9 -73 -46 -6 -20 -11 -45 -11 -54 0 -32 -22 -15 -43 34 l-21 50
-58 0 c-32 0 -58 3 -58 8 0 4 19 23 42 44 l43 36 -23 53 c-12 29 -20 55 -17
57 2 3 26 -9 52 -26 51 -33 61 -32 102 12 33 35 53 34 45 -1z m-4749 -582 l-7
-60 54 -27 c45 -23 50 -28 33 -35 -11 -4 -33 -8 -50 -8 -44 -2 -52 -11 -60
-68 -4 -29 -11 -53 -16 -53 -4 0 -20 21 -35 46 l-27 46 -59 -6 c-32 -4 -58 -3
-58 1 0 5 18 26 39 47 l40 39 -25 48 c-13 27 -24 53 -24 59 0 6 23 -1 51 -15
l51 -26 41 35 c23 19 46 35 50 36 5 0 6 -27 2 -59z m4505 -6 c28 14 55 24 58
21 3 -3 -7 -29 -23 -57 l-27 -51 36 -37 c48 -49 47 -64 -1 -55 -71 14 -76 12
-103 -38 -14 -27 -28 -48 -31 -48 -9 0 -19 39 -19 72 0 31 -17 43 -77 53 -24
4 -43 11 -43 16 0 5 22 20 50 34 l50 25 -6 63 -7 62 45 -43 45 -44 53 27z
m-4184 -485 l6 -59 55 -12 c29 -7 52 -17 50 -22 -1 -5 -23 -17 -47 -26 l-45
-17 2 -62 c1 -34 -2 -62 -7 -62 -4 0 -25 19 -45 41 l-38 42 -50 -21 c-27 -12
-54 -19 -58 -16 -5 2 5 27 22 54 l31 50 -36 42 c-42 48 -45 62 -13 55 88 -22
90 -21 120 28 16 25 33 45 37 45 5 0 12 -27 16 -60z m3770 -1 c23 -41 32 -49
48 -45 47 13 96 18 96 10 -1 -5 -16 -27 -35 -48 l-33 -40 25 -49 c13 -27 22
-52 18 -55 -3 -3 -26 4 -52 17 l-46 22 -41 -40 c-23 -23 -44 -41 -48 -41 -3 0
-5 25 -4 56 l1 56 -47 25 c-27 14 -48 29 -48 33 0 4 26 14 58 21 l57 14 3 45
c3 47 8 70 16 70 3 0 17 -23 32 -51z m-3340 -399 l18 -50 58 0 c32 0 58 -4 58
-8 0 -5 -20 -23 -45 -41 -49 -35 -49 -36 -19 -110 8 -19 12 -36 10 -39 -3 -2
-28 10 -56 28 l-51 33 -45 -33 c-25 -18 -47 -30 -50 -27 -5 4 9 67 22 101 3 7
-16 27 -41 45 -25 18 -45 36 -45 42 0 5 25 9 55 9 50 0 56 3 65 25 6 14 14 36
20 50 14 37 26 31 46 -25z m2909 -5 c15 -53 17 -55 53 -57 20 -1 46 -2 56 -2
30 -2 29 -20 -1 -39 -66 -40 -66 -39 -50 -101 17 -65 11 -69 -43 -26 -21 17
-41 30 -45 30 -4 0 -27 -14 -51 -32 -24 -17 -46 -29 -49 -27 -2 3 3 29 13 58
l17 54 -43 36 c-23 20 -42 40 -42 44 0 4 27 7 59 7 l59 0 13 38 c13 41 28 72
34 72 2 0 11 -25 20 -55z m-2399 -277 c15 -24 29 -45 31 -47 1 -2 25 2 53 9
28 7 54 10 57 7 3 -3 -11 -25 -30 -49 l-35 -43 29 -43 c32 -46 37 -67 15 -59
-8 3 -33 11 -57 18 l-42 13 -37 -43 c-44 -50 -55 -43 -45 28 l7 48 -56 24
c-31 12 -56 26 -56 30 0 5 19 13 43 19 23 6 47 13 53 15 6 2 15 29 18 59 4 31
11 56 15 56 5 0 21 -19 37 -42z m1884 -22 l0 -55 55 -16 c30 -8 55 -19 55 -24
0 -5 -22 -18 -50 -30 l-50 -22 0 -54 c0 -30 -3 -55 -7 -55 -5 0 -24 18 -43 41
l-35 41 -54 -22 c-29 -11 -56 -19 -58 -16 -2 2 10 27 27 55 l32 51 -38 45
c-20 25 -34 48 -30 52 3 3 31 -1 62 -9 l56 -16 27 44 c36 60 51 57 51 -10z
m-1304 -148 l31 -29 47 27 c26 14 50 24 53 20 4 -3 -4 -29 -18 -57 l-24 -52
43 -37 c23 -21 42 -41 42 -45 0 -4 -27 -4 -59 0 l-60 7 -26 -51 c-14 -28 -29
-51 -34 -51 -5 0 -12 21 -16 46 -10 69 -12 71 -71 79 -30 3 -54 10 -54 15 0 4
20 20 45 35 l46 26 -7 62 c-8 69 -8 69 62 5z m741 20 c-22 -90 -22 -91 33
-121 52 -28 58 -47 16 -47 -13 0 -37 -3 -54 -6 -28 -6 -32 -12 -43 -60 -7 -30
-15 -54 -19 -54 -4 0 -17 23 -30 50 l-24 51 -58 -7 c-34 -4 -58 -3 -58 3 0 5
16 25 36 44 38 36 39 46 10 112 -20 45 -10 48 53 12 l43 -25 42 35 c48 41 60
43 53 13z"/>
<path d="M1643 4544 c10 -243 81 -402 251 -561 115 -108 256 -197 529 -333
l251 -125 -3 -136 c-3 -195 24 -327 100 -486 37 -77 139 -206 153 -192 3 3
-11 29 -30 58 -53 78 -111 205 -135 296 -17 62 -22 108 -22 205 1 138 18 222
72 352 17 40 27 75 23 79 -4 4 -80 55 -169 113 -203 131 -404 273 -536 379
-140 113 -337 306 -409 402 -33 44 -65 82 -71 84 -7 2 -8 -42 -4 -135z"/>
<path d="M5246 4605 c-173 -230 -437 -453 -903 -762 l-232 -154 29 -68 c58
-136 74 -214 74 -356 0 -176 -38 -309 -134 -467 -41 -68 -43 -93 -3 -57 39 37
94 126 129 210 53 125 76 251 78 423 1 121 4 150 16 157 8 5 111 56 228 114
430 213 602 351 708 570 56 116 76 215 72 359 l-3 110 -59 -79z"/>
<path d="M1774 3953 c3 -10 10 -40 17 -68 22 -91 78 -192 151 -270 120 -129
283 -218 498 -274 l105 -28 13 -54 c41 -177 104 -331 154 -375 l21 -19 -22 42
c-54 108 -103 351 -100 500 l2 96 -109 39 c-138 49 -330 142 -459 221 -98 60
-232 165 -248 193 -11 20 -29 17 -23 -3z"/>
<path d="M5107 3905 c-134 -127 -437 -295 -674 -375 l-88 -29 -6 -133 c-8
-187 -37 -326 -95 -457 -24 -53 -24 -54 -3 -35 37 33 107 194 137 314 l29 115
94 26 c322 87 512 221 619 437 34 69 68 192 53 192 -5 -1 -34 -25 -66 -55z"/>
<path d="M2940 3912 c-54 -55 -64 -153 -19 -204 19 -23 19 -22 -1 17 -24 48
-26 92 -4 123 19 28 30 22 38 -21 6 -33 42 -75 81 -95 11 -5 53 -15 94 -21
119 -19 175 -61 173 -131 0 -23 4 -30 17 -30 52 0 113 -93 115 -175 1 -57 -10
-105 -24 -105 -6 0 -10 12 -10 28 0 45 -44 124 -97 173 -56 53 -78 65 -188
109 -43 17 -96 43 -119 58 -26 18 -57 29 -85 30 l-44 3 29 -34 c24 -29 38 -35
84 -41 92 -11 270 -81 270 -107 0 -6 -6 -8 -12 -5 -70 29 -128 38 -209 34 -80
-5 -88 -4 -92 14 -3 10 -20 24 -38 30 -30 10 -31 12 -14 25 25 17 3 17 -40 -1
-37 -16 -49 -38 -16 -29 30 8 84 -25 76 -45 -4 -9 -18 -48 -30 -87 -13 -38
-32 -91 -43 -117 -11 -25 -17 -49 -14 -53 4 -4 9 -52 12 -108 5 -91 9 -110 42
-177 20 -41 63 -105 95 -143 115 -134 241 -203 423 -233 88 -15 113 -16 179
-5 190 32 341 129 450 289 79 118 105 208 98 344 -6 111 -21 183 -54 257 -26
61 -22 71 35 71 48 0 36 22 -21 40 -50 16 -59 32 -27 52 32 20 23 29 -20 22
-22 -4 -40 -3 -40 0 0 4 12 23 26 42 36 47 42 109 16 160 -20 39 -58 81 -67
73 -7 -8 23 -84 32 -80 10 5 33 -38 33 -64 0 -36 -36 -99 -77 -136 -21 -19
-75 -50 -119 -69 -199 -82 -253 -130 -291 -258 -25 -85 -31 -83 -47 18 -13 79
38 173 108 200 19 7 26 15 22 26 -10 26 20 80 56 102 20 13 68 27 114 33 43 6
91 18 106 25 33 17 78 74 78 100 0 13 -7 9 -21 -17 -21 -36 -65 -69 -91 -69
-8 0 -29 11 -48 25 -52 38 -173 85 -240 92 -81 8 -77 -9 7 -25 69 -13 181 -61
202 -86 18 -22 -72 -31 -124 -13 -125 44 -260 46 -381 5 -59 -19 -75 -21 -104
-12 l-35 11 35 22 c49 30 134 61 203 74 75 15 74 32 -3 24 -68 -8 -161 -43
-232 -88 -59 -38 -103 -35 -142 12 -31 37 -40 69 -33 115 3 18 3 34 1 34 -3 0
-18 -13 -34 -28z m590 -177 c0 -34 -81 -45 -120 -17 l-25 17 65 6 c36 3 68 6
73 7 4 1 7 -5 7 -13z m-160 -4 c0 -15 -28 -33 -46 -29 -24 4 -29 25 -7 31 31
8 53 7 53 -2z m250 -11 c12 -8 12 -10 -2 -15 -24 -9 -61 -2 -66 13 -4 14 45
17 68 2z m-87 -58 c-13 -31 -83 -43 -115 -18 -32 24 -19 31 51 31 52 0 67 -3
64 -13z m-160 -36 c18 -7 44 -25 58 -40 l27 -26 32 30 c31 29 104 59 116 47
10 -10 -7 -47 -22 -47 -28 0 -73 -30 -91 -60 -22 -39 -37 -38 -62 3 -21 34
-57 57 -90 57 -17 0 -31 18 -31 41 0 13 26 11 63 -5z m655 -32 c29 -8 28 -22
-3 -34 -13 -5 -30 -18 -36 -28 -11 -17 -22 -19 -103 -14 -74 3 -102 0 -151
-16 -108 -37 -77 -3 44 48 103 44 191 59 249 44z m-858 -158 c14 -11 19 -14
13 -6 -23 26 -13 34 12 10 31 -29 32 -39 3 -37 -25 2 -98 54 -98 69 0 11 37
-8 70 -36z m616 -1 c-42 -39 -59 -44 -49 -17 5 14 3 13 -10 -3 -8 -11 -19 -16
-23 -12 -4 4 4 20 19 35 15 14 27 21 27 14 0 -8 11 -5 32 8 46 28 48 15 4 -25z
m-667 -6 c18 -16 31 -32 28 -35 -6 -7 -75 38 -81 54 -10 22 19 12 53 -19z
m741 22 c0 -10 -80 -64 -87 -58 -2 3 11 19 29 36 32 30 58 40 58 22z m-873
-12 c12 -12 6 -49 -8 -49 -5 0 -9 6 -9 14 0 8 -3 21 -6 30 -7 18 7 21 23 5z
m295 -45 c49 -82 50 -83 36 -112 -18 -38 -72 -64 -107 -51 -41 16 -61 40 -61
74 0 41 17 63 63 79 33 11 36 14 22 26 -8 7 -15 19 -15 27 0 14 3 14 22 1 13
-8 30 -28 40 -44z m416 34 c-19 -28 -45 -44 -55 -34 -8 8 44 56 61 56 5 0 2
-10 -6 -22z m282 -2 c0 -14 -5 -28 -10 -31 -13 -8 -24 20 -16 40 9 24 26 17
26 -9z m-1030 -30 c0 -7 6 -19 14 -25 11 -9 11 -17 3 -35 -14 -28 -27 -24 -27
8 0 12 -5 27 -11 33 -12 12 -4 33 12 33 5 0 9 -6 9 -14z m140 -15 c35 -22 39
-30 29 -63 -11 -41 15 -104 52 -123 36 -19 70 -19 116 0 44 19 57 10 24 -16
-13 -10 -20 -19 -15 -19 4 0 18 10 31 22 20 18 23 19 23 5 0 -10 -15 -26 -32
-38 -32 -19 -63 -21 -102 -4 -13 6 -17 5 -12 -3 4 -6 23 -14 43 -18 30 -6 33
-8 18 -17 -26 -14 -115 0 -147 23 -16 11 -28 16 -28 11 0 -5 15 -19 34 -30 41
-26 161 -30 192 -6 27 21 47 19 39 -4 -3 -10 0 -30 6 -45 15 -31 -4 -60 -34
-52 -11 2 -28 -1 -38 -7 -15 -9 -23 -9 -38 0 -10 6 -28 9 -40 6 -13 -3 -29 1
-40 11 -10 9 -25 14 -34 10 -10 -3 -21 3 -32 20 -9 13 -26 26 -38 28 -14 2
-23 11 -25 25 -2 12 -12 25 -22 28 -24 7 -33 34 -19 51 9 11 6 18 -12 33 -21
17 -22 22 -11 41 9 15 10 26 2 40 -8 15 -6 24 7 37 10 10 17 27 15 37 -3 11 4
25 13 32 18 13 35 10 75 -15z m820 14 c6 -8 10 -22 8 -32 -2 -10 6 -26 17 -35
18 -15 18 -19 6 -39 -10 -17 -10 -24 -2 -27 18 -6 13 -40 -10 -55 -13 -9 -16
-17 -10 -22 16 -9 13 -43 -5 -53 -8 -5 -21 -20 -27 -33 -7 -13 -22 -25 -34
-27 -12 -2 -25 -12 -28 -23 -6 -19 -16 -23 -43 -20 -8 1 -22 -5 -32 -14 -11
-10 -26 -14 -39 -10 -11 3 -29 0 -40 -7 -17 -10 -23 -9 -39 5 -14 13 -21 14
-30 5 -19 -19 -54 19 -41 44 6 10 10 29 9 41 -3 36 -1 37 33 17 50 -31 151
-28 200 5 46 32 49 44 5 17 -43 -26 -91 -36 -136 -27 l-37 7 48 14 c26 8 47
19 47 25 0 5 -14 2 -31 -7 -37 -18 -74 -12 -106 18 -27 25 -31 48 -5 26 32
-27 47 -32 25 -6 -33 36 -29 39 27 15 97 -41 165 5 165 111 0 55 1 57 40 79
48 27 49 27 65 8z m105 -17 c-11 -54 -16 -68 -25 -68 -15 0 -18 53 -4 67 8 8
14 19 14 24 0 5 5 9 11 9 7 0 8 -12 4 -32z m-276 -3 c75 -38 42 -149 -44 -149
-86 0 -120 109 -46 149 34 18 55 18 90 0z m-810 -61 c21 -36 28 -84 12 -84 -5
0 -14 14 -21 30 -7 17 -19 34 -26 38 -14 8 -9 52 6 52 4 0 17 -16 29 -36z
m1130 10 c10 -22 9 -26 -7 -31 -10 -2 -23 -18 -29 -34 -6 -16 -16 -29 -22 -29
-18 0 -12 46 9 73 11 14 20 30 20 36 0 20 17 11 29 -15z m-1161 -84 c12 -16
34 -33 48 -36 17 -5 23 -11 19 -22 -3 -8 -1 -18 4 -21 6 -4 6 -12 1 -20 -6
-11 -18 -4 -48 30 -33 35 -42 40 -47 27 -11 -27 14 -58 62 -79 24 -10 52 -19
60 -19 10 0 13 -6 9 -15 -3 -10 1 -18 12 -22 9 -4 27 -17 39 -30 20 -21 20
-23 4 -23 -10 0 -46 18 -79 40 -83 56 -149 53 -87 -4 29 -27 78 -43 160 -52
33 -4 65 -11 72 -16 7 -5 17 -7 24 -3 7 5 10 1 7 -11 -5 -28 -57 -29 -139 -4
-73 23 -98 18 -86 -14 17 -45 161 -47 264 -4 58 24 62 24 76 7 19 -21 12 -28
-51 -52 -26 -10 -71 -17 -116 -17 -55 0 -77 -4 -87 -16 -11 -14 -10 -18 6 -31
39 -29 113 -10 258 69 27 14 42 17 49 10 17 -17 -45 -66 -122 -96 -71 -28 -92
-49 -62 -64 32 -17 81 8 150 73 49 47 68 60 70 49 6 -28 -21 -65 -75 -106 -55
-40 -63 -55 -37 -65 27 -10 63 15 99 72 55 86 71 67 24 -27 -26 -50 -23 -59 6
-23 28 34 40 30 25 -10 -15 -38 -6 -43 10 -5 16 39 34 39 25 0 -4 -19 -3 -30
4 -30 6 0 11 9 11 19 0 55 29 63 31 8 1 -24 3 -26 6 -9 2 12 7 22 10 22 2 0
14 -10 25 -22 18 -21 19 -21 13 -3 -20 58 -19 61 14 30 l32 -30 -25 55 c-42
89 -31 111 17 35 33 -52 71 -85 98 -85 36 0 20 36 -33 76 -36 26 -57 51 -64
74 -7 19 -10 37 -8 39 2 2 34 -25 71 -61 69 -66 135 -100 155 -80 18 18 -9 46
-64 66 -60 21 -128 70 -128 93 0 20 47 9 75 -17 58 -54 222 -88 245 -50 17 28
-9 40 -85 40 -69 0 -143 18 -171 41 -11 9 -11 14 1 25 12 12 25 11 92 -12 99
-33 210 -32 244 3 21 21 21 21 2 32 -15 8 -38 5 -92 -10 -39 -11 -86 -19 -103
-17 -38 4 -51 28 -14 28 13 0 28 5 31 10 3 6 19 10 35 10 64 0 133 22 168 55
21 18 32 37 28 43 -11 18 -17 16 -92 -33 -79 -51 -119 -61 -78 -20 14 14 29
25 34 25 6 0 10 8 10 18 0 12 14 21 43 30 44 14 97 57 97 79 0 24 -28 13 -55
-23 -31 -40 -50 -40 -50 0 -1 22 7 32 37 47 20 10 42 29 49 40 21 40 34 4 33
-94 -1 -76 -6 -103 -29 -157 -59 -141 -154 -237 -290 -293 -102 -42 -162 -52
-305 -52 -122 0 -143 3 -224 29 -213 70 -395 262 -398 422 -2 69 11 164 21
164 4 0 17 -13 29 -30z m587 20 c4 -6 -5 -10 -20 -10 -15 0 -24 4 -20 10 3 6
12 10 20 10 8 0 17 -4 20 -10z m10 -41 c16 -17 17 -25 7 -52 -10 -27 -9 -29 2
-14 18 23 30 22 23 -3 -3 -10 0 -21 6 -23 8 -2 6 -12 -6 -28 -10 -13 -27 -39
-38 -56 -12 -18 -24 -33 -27 -33 -4 1 -20 21 -37 46 -16 25 -34 52 -40 59 -5
8 -6 18 -2 22 5 4 12 1 17 -7 6 -8 10 -10 10 -4 0 5 -5 15 -12 22 -17 17 -1
27 18 11 16 -13 16 -12 6 8 -16 29 -16 29 10 53 27 25 40 25 63 -1z"/>
<path d="M3190 3345 c-29 -35 -4 -95 40 -95 51 0 83 77 41 100 -28 15 -67 12
-81 -5z m80 -20 c0 -8 -9 -15 -20 -15 -11 0 -20 7 -20 15 0 8 9 15 20 15 11 0
20 -7 20 -15z"/>
<path d="M3030 3370 c0 -5 5 -10 10 -10 6 0 10 5 10 10 0 6 -4 10 -10 10 -5 0
-10 -4 -10 -10z"/>
<path d="M3006 3311 c-4 -5 -2 -12 3 -15 5 -4 12 -2 15 3 4 5 2 12 -3 15 -5 4
-12 2 -15 -3z"/>
<path d="M3005 3240 c-3 -5 1 -10 9 -10 9 0 16 5 16 10 0 6 -4 10 -9 10 -6 0
-13 -4 -16 -10z"/>
<path d="M3020 3160 c0 -5 5 -10 10 -10 6 0 10 5 10 10 0 6 -4 10 -10 10 -5 0
-10 -4 -10 -10z"/>
<path d="M3070 3104 c0 -8 5 -12 10 -9 6 3 10 10 10 16 0 5 -4 9 -10 9 -5 0
-10 -7 -10 -16z"/>
<path d="M3126 3071 c-4 -5 -2 -12 3 -15 5 -4 12 -2 15 3 4 5 2 12 -3 15 -5 4
-12 2 -15 -3z"/>
<path d="M3310 3056 c0 -8 5 -18 10 -21 6 -3 10 1 10 9 0 8 -4 18 -10 21 -5 3
-10 -1 -10 -9z"/>
<path d="M3195 3047 c-4 -10 -5 -21 -1 -24 10 -10 18 4 13 24 -4 17 -4 17 -12
0z"/>
<path d="M3260 3036 c0 -14 5 -26 10 -26 6 0 10 9 10 19 0 11 -4 23 -10 26 -6
4 -10 -5 -10 -19z"/>
<path d="M3870 3370 c0 -5 7 -10 15 -10 8 0 15 5 15 10 0 6 -7 10 -15 10 -8 0
-15 -4 -15 -10z"/>
<path d="M3895 3311 c-6 -11 9 -23 19 -14 9 9 7 23 -3 23 -6 0 -12 -4 -16 -9z"/>
<path d="M3895 3240 c-3 -5 1 -10 9 -10 9 0 16 5 16 10 0 6 -4 10 -9 10 -6 0
-13 -4 -16 -10z"/>
<path d="M3880 3160 c0 -5 5 -10 10 -10 6 0 10 5 10 10 0 6 -4 10 -10 10 -5 0
-10 -4 -10 -10z"/>
<path d="M3840 3110 c0 -5 5 -10 11 -10 5 0 7 5 4 10 -3 6 -8 10 -11 10 -2 0
-4 -4 -4 -10z"/>
<path d="M3780 3065 c0 -8 5 -15 10 -15 6 0 10 7 10 15 0 8 -4 15 -10 15 -5 0
-10 -7 -10 -15z"/>
<path d="M3596 3054 c-9 -22 3 -32 14 -14 12 19 12 30 1 30 -5 0 -12 -7 -15
-16z"/>
<path d="M3646 3044 c-7 -19 2 -37 15 -29 12 8 12 45 0 45 -5 0 -12 -7 -15
-16z"/>
<path d="M3710 3046 c0 -8 5 -18 10 -21 6 -3 10 3 10 14 0 12 -4 21 -10 21 -5
0 -10 -6 -10 -14z"/>
<path d="M3658 3349 c-22 -13 -24 -62 -2 -83 21 -21 57 -20 77 2 47 52 -14
117 -75 81z m72 -24 c0 -8 -9 -15 -20 -15 -11 0 -20 7 -20 15 0 8 9 15 20 15
11 0 20 -7 20 -15z"/>
<path d="M2931 3774 c-1 -29 43 -103 62 -104 15 0 6 30 -18 58 -14 16 -29 40
-34 53 -9 23 -10 23 -10 -7z"/>
<path d="M3990 3788 c0 -7 -14 -29 -30 -48 -16 -19 -30 -44 -30 -55 1 -17 6
-14 35 17 24 26 35 47 35 68 0 16 -2 30 -5 30 -3 0 -5 -6 -5 -12z"/>
<path d="M3020 3684 c8 -33 23 -53 41 -54 11 0 -3 55 -19 73 -23 27 -31 20
-22 -19z"/>
<path d="M3888 3703 c-17 -20 -30 -73 -18 -73 12 0 30 26 35 49 2 12 7 26 10
31 10 17 -11 11 -27 -7z"/>
<path d="M3084 3674 c4 -16 14 -39 22 -51 18 -29 39 -31 24 -4 -5 11 -10 29
-10 40 0 11 -10 25 -21 32 -20 10 -21 9 -15 -17z"/>
<path d="M3818 3683 c-17 -20 -29 -83 -16 -83 11 0 34 40 42 73 7 31 -4 35
-26 10z"/>
<path d="M3144 3675 c5 -11 11 -31 14 -45 5 -27 30 -60 44 -60 5 0 6 5 2 12
-4 7 -10 28 -13 46 -4 21 -15 41 -31 51 -23 15 -24 15 -16 -4z"/>
<path d="M3760 3672 c-21 -17 -46 -102 -30 -102 15 0 40 38 40 61 0 14 5 30
12 37 20 20 2 24 -22 4z"/>
<path d="M3218 3613 c4 -40 28 -76 43 -67 17 10 9 63 -13 84 -30 28 -35 25
-30 -17z"/>
<path d="M3676 3628 c-18 -25 -21 -74 -7 -83 15 -9 41 37 41 72 0 38 -12 42
-34 11z"/>
<path d="M3310 3512 c0 -19 12 -42 22 -42 14 0 5 43 -9 48 -7 2 -13 -1 -13 -6z"/>
<path d="M3590 3511 c0 -5 -3 -16 -6 -25 -4 -10 -1 -16 9 -16 14 0 27 20 27
41 0 5 -7 9 -15 9 -8 0 -15 -4 -15 -9z"/>
<path d="M3360 3460 c0 -16 5 -30 10 -30 6 0 10 14 10 30 0 17 -4 30 -10 30
-5 0 -10 -13 -10 -30z"/>
<path d="M3546 3475 c-7 -19 3 -47 15 -39 12 7 12 54 0 54 -5 0 -11 -7 -15
-15z"/>
<path d="M3397 3433 c-11 -10 -8 -51 3 -58 6 -4 10 8 10 29 0 37 -2 41 -13 29z"/>
<path d="M3517 3433 c-3 -5 -3 -23 2 -39 7 -28 8 -28 15 -7 8 24 -7 62 -17 46z"/>
<path d="M2030 3408 c0 -18 70 -107 108 -136 86 -66 195 -113 306 -133 64 -11
67 -12 84 -53 20 -44 68 -106 83 -106 4 0 0 15 -10 33 -15 25 -61 157 -86 243
-2 6 -44 19 -93 28 -130 23 -258 63 -329 101 -35 18 -63 28 -63 23z"/>
<path d="M4850 3373 c-77 -37 -217 -80 -315 -94 -38 -6 -76 -14 -84 -18 -7 -4
-27 -49 -42 -101 -16 -52 -40 -116 -54 -142 -13 -27 -20 -48 -15 -48 13 0 61
61 83 108 13 25 30 44 42 47 167 31 292 86 372 163 43 42 92 110 81 115 -2 1
-32 -12 -68 -30z"/>
</g>
</svg>
